<svg width="25" height="29" viewBox="0 0 25 29" fill="none" xmlns="http://www.w3.org/2000/svg">
<g clip-path="url(#clip0_1240_7831)">
<path d="M12.3125 0C5.5825 0 0.3125 5.04 0.3125 11.46C0.3125 17.73 11.1725 27.93 11.6325 28.36L12.3125 29L12.9925 28.36C13.4525 27.93 24.3125 17.73 24.3125 11.46C24.3125 5.04 19.0425 0 12.3125 0ZM12.3125 26.25C8.9925 23.01 2.3125 15.64 2.3125 11.46C2.3125 6.07 6.6125 2 12.3125 2C18.0125 2 22.3125 6.07 22.3125 11.46C22.3125 15.64 15.6325 23.01 12.3125 26.25Z" fill="#009CDE"/>
<path d="M12.3125 6.80957C9.5525 6.80957 7.3125 9.04957 7.3125 11.8096C7.3125 14.5696 9.5525 16.8096 12.3125 16.8096C15.0725 16.8096 17.3125 14.5696 17.3125 11.8096C17.3125 9.04957 15.0725 6.80957 12.3125 6.80957ZM12.3125 14.8096C10.6625 14.8096 9.3125 13.4596 9.3125 11.8096C9.3125 10.1596 10.6625 8.80957 12.3125 8.80957C13.9625 8.80957 15.3125 10.1596 15.3125 11.8096C15.3125 13.4596 13.9625 14.8096 12.3125 14.8096Z" fill="#009CDE"/>
</g>
<defs>
<clipPath id="clip0_1240_7831">
<rect width="24" height="29" fill="white" transform="translate(0.3125)"/>
</clipPath>
</defs>
</svg>
